PathFileType	4	(X/Y/Z)	2014001\dynamic\2014001_C3_05.trc
DataRate	CameraRate	NumFrames	NumMarkers	Units	OrigDataRate	OrigDataStartFrame	OrigNumFrames
100.000000	100.000000	4	52	mm	100.000000	150	172
Frame#	Time	L_IAS			L_IPS			R_IPS			R_IAS			L_FTC			L_FLE			L_FME			L_FAX			L_TTC			L_FAL			L_TAM			L_FCC			L_FM1			L_FM2			L_FM5			R_FTC			R_FLE			R_FME			R_FAX			R_TTC			R_FAL			R_TAM			R_FCC			R_FM1			R_FM2			R_FM5			CV7			TV10			SXS			SJN			L_SIA			L_SRS			L_SAA			L_SAE			L_HLE			L_HME			L_UOA			L_RSP			L_UHE			L_HM2			L_HM5			R_SIA			R_SRS			R_SAA			R_SAE			R_HLE			R_HME			R_UOA			R_RSP			R_UHE			R_HM2			R_HM5			
		X1	Y1	Z1	X2	Y2	Z2	X3	Y3	Z3	X4	Y4	Z4	X5	Y5	Z5	X6	Y6	Z6	X7	Y7	Z7	X8	Y8	Z8	X9	Y9	Z9	X10	Y10	Z10	X11	Y11	Z11	X12	Y12	Z12	X13	Y13	Z13	X14	Y14	Z14	X15	Y15	Z15	X16	Y16	Z16	X17	Y17	Z17	X18	Y18	Z18	X19	Y19	Z19	X20	Y20	Z20	X21	Y21	Z21	X22	Y22	Z22	X23	Y23	Z23	X24	Y24	Z24	X25	Y25	Z25	X26	Y26	Z26	X27	Y27	Z27	X28	Y28	Z28	X29	Y29	Z29	X30	Y30	Z30	X31	Y31	Z31	X32	Y32	Z32	X33	Y33	Z33	X34	Y34	Z34	X35	Y35	Z35	X36	Y36	Z36	X37	Y37	Z37	X38	Y38	Z38	X39	Y39	Z39	X40	Y40	Z40	X41	Y41	Z41	X42	Y42	Z42	X43	Y43	Z43	X44	Y44	Z44	X45	Y45	Z45	X46	Y46	Z46	X47	Y47	Z47	X48	Y48	Z48	X49	Y49	Z49	X50	Y50	Z50	X51	Y51	Z51	X52	Y52	Z52	

151	1.5	329.295623779297	884.658569335938	1624.358398437501	256.958465576172	918.2151489257817	1446.6982421875	168.0825805664063	914.4856567382817	1445.536865234375	89.79135894775393	881.0651245117192	1621.777221679688	391.7052917480471	797.5966796875005	1555.477539062501	384.9889831542971	463.3611145019534	1678.398437500001	273.3794555664064	452.3057250976565	1719.994018554688	386.414245605469	405.5889892578127	1656.012451171876	354.5058593750001	380.4848937988282	1725.549560546876	352.591766357422	87.38857269287112	1611.442260742188	273.0141601562501	91.54660797119143	1653.901123046876	299.7180175781251	44.97219848632814	1577.265136718751	320.3521728515626	45.44771957397462	1755.315551757813	376.1019287109376	57.66804504394534	1743.671875000001	403.8692932128909	42.68562316894533	1691.737304687501	39.10057449340822	786.388549804688	1522.804931640625	83.80814361572268	438.6733398437502	1502.642211914063	202.9340209960939	429.0783386230471	1512.720947265625	82.65187072753909	373.7468872070314	1476.705322265625	134.9532775878907	362.8602294921876	1538.040771484376	139.1490325927735	70.41876220703128	1400.58935546875	224.1849365234376	85.69915008544925	1440.630737304688	195.9277191162111	33.58181762695314	1356.70361328125	207.1697540283204	24.14085388183595	1543.744873046876	141.905746459961	36.91590881347658	1548.948364257813	97.91808319091803	23.96270179748536	1486.34130859375	202.347625732422	1383.159301757813	1482.804321289063	203.7312164306642	1150.353271484375	1421.8759765625	217.5489654541017	1160.852416992188	1659.201293945313	215.2400970458986	1322.006591796875	1611.769653320313	290.7864685058595	1188.536499023438	1412.25634765625	284.9960021972657	1319.4736328125	1432.845092773438	397.0542602539065	1320.346557617188	1493.4912109375	388.7168884277346	1331.237060546875	1535.778076171875	468.5954895019534	1057.02197265625	1464.55029296875	393.0989685058596	1026.037109375	1440.006713867188	441.1648559570315	1028.458984375	1428.986694335938	450.6073303222659	816.031616210938	1527.8896484375	511.9394836425784	821.8690795898442	1475.987548828125	460.4931945800784	729.7395629882815	1544.259643554688	515.7851562500002	745.192810058594	1457.811279296875	83.89521026611331	1192.009887695313	1431.014404296875	112.7729873657227	1315.207641601563	1448.936157226563	14.89141941070557	1321.037841796875	1531.405883789063	32.06824493408205	1326.766967773438	1578.241455078126	-66.13308715820315	1031.102416992188	1598.267211914063	5.952108860015871	1001.075256347657	1567.117431640626	-40.81995773315431	996.0368041992192	1571.559814453126	-25.67679023742677	876.9528198242192	1767.151367187501	-92.30959320068362	856.038696289063	1725.319091796876	-40.57854461669923	810.754760742188	1833.333862304688	-94.91176605224612	782.051147460938	1751.411743164063	
152	1.51	329.3085021972657	882.4780273437505	1635.505004882813	257.4839782714845	916.5305786132817	1457.58056640625	168.7510375976563	913.2067260742192	1456.265380859375	89.80210113525393	879.375122070313	1632.193481445313	391.6814880371096	795.2348022460942	1566.369873046876	384.0019836425784	461.7847290039065	1692.050659179688	272.4179687500001	451.7458190917971	1733.301635742188	385.7854003906252	402.9603271484377	1672.765258789063	353.3136596679689	381.5836791992189	1743.252197265626	353.8112182617189	82.74915313720706	1648.525268554688	273.9244689941407	89.25346374511722	1689.993774414063	301.4183654785157	37.98469161987306	1616.893432617188	320.7028808593751	49.97940826416018	1794.356811523438	376.5764770507814	61.81173324584964	1782.533081054688	404.7027587890627	43.71384811401369	1731.857543945313	38.98413848876955	785.7484741210942	1532.042358398438	83.51103210449222	438.4522705078127	1506.350830078125	202.590301513672	428.3692932128909	1516.699096679688	82.5038986206055	373.823211669922	1479.69091796875	134.5852355957032	362.0302734375001	1540.904296875001	139.2749328613282	70.92494201660159	1400.883666992188	224.3335876464845	85.94218444824222	1441.226806640625	196.2082366943361	34.37685394287111	1356.856689453125	207.0898437500001	24.09481620788576	1543.789794921876	141.7764892578126	36.88772583007814	1548.944946289063	97.96099853515631	23.89529991149903	1486.21484375	202.7875061035157	1381.5732421875	1494.541137695313	203.9907379150392	1148.899780273438	1433.182250976563	218.0235748291017	1158.885864257813	1670.649902343751	215.9604644775392	1320.164306640625	1623.433471679688	290.539031982422	1186.713745117188	1423.356201171875	285.0340576171876	1317.774291992188	1444.22119140625	397.2140808105471	1318.342529296875	1504.26806640625	389.1830139160159	1329.102172851563	1546.484985351563	468.689636230469	1055.715209960938	1472.603149414063	393.0355224609377	1024.735229492188	1448.815795898438	440.8267211914065	1027.496704101563	1437.388549804688	452.4525146484377	814.0625000000005	1533.57080078125	513.0068359375002	820.570190429688	1480.637329101563	462.8739013671877	727.6748046875002	1548.741943359376	516.9422607421877	744.1394042968752	1461.622680664063	83.90395355224612	1190.640502929688	1442.957641601563	112.9645919799805	1313.898071289063	1460.894287109375	15.35714435577393	1319.6875	1543.694824218751	32.75676345825197	1325.371704101563	1590.410400390626	-67.168571472168	1030.71728515625	1612.793334960938	4.649251461029055	999.7711791992192	1582.295166015626	-42.23732376098634	994.9777221679692	1586.452880859376	-26.0341033935547	880.734252929688	1785.389892578126	-92.66934967041018	858.5556030273442	1744.429443359376	-40.50617980957033	816.7047729492192	1853.482543945313	-94.89408874511722	785.2873535156255	1772.698608398438	
153	1.52	329.3608703613282	880.1132202148442	1646.746704101563	258.0957336425782	914.6710815429692	1468.541625976563	169.4881591796876	911.7893066406255	1467.073486328125	89.86749267578128	877.6616210937505	1642.741455078126	391.6820068359377	792.6784667968755	1577.292602539063	383.0392456054689	459.8927307128909	1705.189575195313	271.3936767578126	450.7816162109377	1746.027832031251	385.201599121094	400.2185668945315	1689.141357421876	352.0952453613282	382.5782470703126	1760.424438476563	355.0274658203126	79.20349884033206	1685.399169921876	274.7588500976564	88.0673522949219	1725.593383789063	303.107635498047	32.26952362060548	1656.398071289063	320.5679931640626	55.67109680175784	1832.608398437501	376.6174316406251	66.98589324951175	1820.835205078126	405.2090759277346	45.81620025634767	1771.677124023438	38.80504989624025	785.102905273438	1541.431884765626	83.1785583496094	438.2669067382815	1510.326049804688	202.2544708251954	427.6622619628909	1520.96826171875	82.33335113525393	373.9608459472657	1482.918334960938	134.1685638427735	361.2400207519532	1543.994506835938	139.335922241211	71.54679870605472	1401.235107421875	224.4313201904298	86.265251159668	1441.872314453125	196.4423065185548	35.33174133300783	1357.03662109375	207.0108947753907	24.06055831909181	1543.814941406251	141.6607818603516	36.83106613159181	1548.925903320313	97.99490356445318	23.83256912231446	1486.081665039063	203.3309783935548	1379.861938476563	1506.325439453125	204.3715362548829	1147.345092773438	1444.54296875	218.6198730468751	1156.78466796875	1682.142089843751	216.7702636718751	1318.199951171875	1635.157958984376	290.4707336425782	1184.8310546875	1434.531616210938	285.2064514160157	1315.996948242188	1455.667236328125	397.5012817382815	1316.25439453125	1515.151611328125	389.7371520996096	1326.887817382813	1557.275878906251	468.7983093261721	1054.272216796875	1481.04150390625	392.9654541015627	1023.255187988282	1458.1240234375	440.4735412597659	1026.385375976563	1446.223510742188	454.3107910156252	811.961791992188	1539.518676757813	514.1314697265627	819.238403320313	1485.659423828125	465.2799377441409	725.4641113281252	1553.420898437501	518.198913574219	743.1076660156252	1465.781616210938	84.06113433837893	1189.174438476563	1454.90869140625	113.2822418212891	1312.45556640625	1472.904052734375	15.93217182159425	1318.194213867188	1556.053955078126	33.57670974731447	1323.8193359375	1602.656494140626	-67.97241973876956	1030.148071289063	1627.167114257813	3.606910943984987	998.3438110351567	1597.331909179688	-43.40452194213869	993.7849121093755	1601.240722656251	-26.27560043334962	884.2273559570317	1803.221313476563	-92.87964630126956	860.8696289062505	1763.093383789063	-40.32808685302736	822.3342895507817	1873.037475585938	-94.73796844482425	788.345581054688	1793.403808593751	
154	1.53	329.4432373046876	877.6088256835942	1658.100585937501	258.7991638183595	912.650268554688	1479.600463867188	170.301986694336	910.2467651367192	1477.971069335938	89.97471618652347	875.951293945313	1653.433959960938	391.7226867675784	789.9786987304692	1588.302612304688	382.1142578125001	457.7444763183596	1717.896850585938	270.3115844726564	449.4673156738284	1758.237915039063	384.6507568359377	397.4260253906252	1705.142578125001	350.8645019531251	383.4690856933595	1777.084228515626	356.1779174804689	76.73280334472659	1721.727905273438	275.4741210937501	87.9238204956055	1760.408935546876	304.7002258300782	27.81647300720216	1695.401000976563	319.9520263671876	62.37223052978518	1869.771118164063	376.2224426269532	73.0502624511719	1858.266601562501	405.3596801757815	48.88348770141604	1810.845336914063	38.57857894897462	784.4557495117192	1550.989013671876	82.81797790527347	438.1224365234377	1514.60546875	201.9388275146486	426.9653015136721	1525.565673828125	82.13947296142581	374.1634216308595	1486.42431640625	133.7088317871094	360.5050048828126	1547.342773437501	139.3208923339844	72.30536651611331	1401.658813476563	224.4631195068361	86.69329833984378	1442.56689453125	196.6116943359376	36.47924423217775	1357.25146484375	206.9289398193361	24.04900932312013	1543.825927734376	141.558822631836	36.74740982055665	1548.901977539063	98.01606750488287	23.78123664855958	1485.953002929688	203.9803314208986	1378.04736328125	1518.15966796875	204.8680419921876	1145.714477539063	1455.962524414063	219.3326416015626	1154.57861328125	1693.679565429688	217.6712799072267	1316.1396484375	1646.945800781251	290.5805969238282	1182.904174804688	1445.78759765625	285.5137023925782	1314.155517578125	1467.18896484375	397.9169616699221	1314.101928710938	1526.140014648438	390.387878417969	1324.61962890625	1568.159301757813	468.9362792968752	1052.702392578125	1489.8701171875	392.903503417969	1021.61181640625	1467.922973632813	440.1252441406252	1025.134399414063	1455.488159179688	456.1907348632815	809.7409057617192	1545.740966796876	515.3164672851565	817.8847045898442	1491.07080078125	467.7104187011721	723.1225585937502	1558.315063476563	519.540222167969	742.1085205078127	1470.299194335938	84.36309814453128	1187.636596679688	1466.87060546875	113.7291793823243	1310.903198242188	1484.9619140625	16.61894989013673	1316.584716796875	1568.478149414063	34.52716445922853	1322.141235351563	1614.974487304688	-68.53740692138675	1029.404052734375	1641.386962890626	2.837300539016725	996.815307617188	1612.199340820313	-44.30499649047853	992.4662475585942	1615.939697265626	-26.39382934570314	887.4018554687505	1820.626708984376	-92.93741607666018	862.9570922851567	1781.283447265626	-40.05525588989259	827.5975952148442	1891.987670898438	-94.44607543945315	791.1920776367192	1813.480834960938	
